<svg xmlns="http://www.w3.org/2000/svg" viewBox="0 0 793.21 955.4">
  <path d="M1339,934.35l-318-.22a15.8,15.8,0,0,1-15.79-15.8V699.2" transform="translate(-546.78 -43.67)" style="fill: none;stroke: #afba9e;stroke-miterlimit: 10;stroke-width: 24px"/>
  <path d="M952.18,674.52l-.09,296.74a15.8,15.8,0,0,0,15.8,15.81H1339" transform="translate(-546.78 -43.67)" style="fill: none;stroke: #afba9e;stroke-miterlimit: 10;stroke-width: 24px"/>
  <path d="M1340,881.36l-265.3,0a15.8,15.8,0,0,1-15.8-15.8V699.37" transform="translate(-546.78 -43.67)" style="fill: none;stroke: #afba9e;stroke-miterlimit: 10;stroke-width: 24px"/>
  <line x1="114.82" y1="458.08" x2="187.42" y2="332.34" style="fill: none;stroke: #afba9e;stroke-miterlimit: 10;stroke-width: 24px"/>
  <line x1="69.81" y1="434.85" x2="142.41" y2="309.11" style="fill: none;stroke: #afba9e;stroke-miterlimit: 10;stroke-width: 24px"/>
  <line x1="159.83" y1="487.11" x2="232.42" y2="361.38" style="fill: none;stroke: #afba9e;stroke-miterlimit: 10;stroke-width: 24px"/>
  <line x1="432.78" y1="458.08" x2="360.19" y2="332.34" style="fill: none;stroke: #afba9e;stroke-miterlimit: 10;stroke-width: 24px"/>
  <line x1="477.79" y1="434.85" x2="405.2" y2="309.11" style="fill: none;stroke: #afba9e;stroke-miterlimit: 10;stroke-width: 24px"/>
  <line x1="387.77" y1="487.11" x2="315.18" y2="361.38" style="fill: none;stroke: #afba9e;stroke-miterlimit: 10;stroke-width: 24px"/>
  <line x1="333.59" y1="630.83" x2="188.4" y2="630.83" style="fill: none;stroke: #afba9e;stroke-miterlimit: 10;stroke-width: 24px"/>
  <line x1="335.97" y1="580.24" x2="190.79" y2="580.24" style="fill: none;stroke: #afba9e;stroke-miterlimit: 10;stroke-width: 24px"/>
  <line x1="336.23" y1="684.33" x2="191.04" y2="684.33" style="fill: none;stroke: #afba9e;stroke-miterlimit: 10;stroke-width: 24px"/>
  <line x1="273.8" y1="227.58" x2="273.8" style="fill: none;stroke: #afba9e;stroke-miterlimit: 10;stroke-width: 24px"/>
  <line x1="215.73" y1="217.79" x2="215.73" y2="0.73" style="fill: none;stroke: #afba9e;stroke-miterlimit: 10;stroke-width: 24px"/>
  <line x1="333.33" y1="217.79" x2="333.33" y2="0.73" style="fill: none;stroke: #afba9e;stroke-miterlimit: 10;stroke-width: 24px"/>
  <path d="M1030.49,321,825.43,202.56a9.69,9.69,0,0,0-9.69,0L610.68,321a9.69,9.69,0,0,0,0,16.78L815.74,456.12a9.69,9.69,0,0,0,9.69,0l205.06-118.39A9.69,9.69,0,0,0,1030.49,321Z" transform="translate(-546.78 -43.67)" style="fill: #b2b1d0"/>
  <path d="M546.78,437.59V674.37a9.69,9.69,0,0,0,4.85,8.39l205.06,118.4a9.69,9.69,0,0,0,14.53-8.4V556a9.68,9.68,0,0,0-4.84-8.39L561.32,429.2A9.69,9.69,0,0,0,546.78,437.59Z" transform="translate(-546.78 -43.67)" style="fill: #b2b1d0"/>
  <path d="M870,556V792.76a9.69,9.69,0,0,0,14.53,8.4l205.06-118.4a9.69,9.69,0,0,0,4.85-8.39V437.59a9.69,9.69,0,0,0-14.54-8.39L874.79,547.59A9.7,9.7,0,0,0,870,556Z" transform="translate(-546.78 -43.67)" style="fill: #b2b1d0"/>
</svg>
