<svg xmlns="http://www.w3.org/2000/svg" viewBox="0 0 845.18 614.36">
  <g>
    <g>
      <g>
        <g>
          <path d="M726.41,421.26H714.65v-2.65a12.56,12.56,0,0,0-1.9-7q-1.9-2.94-6.4-2.94a7.34,7.34,0,0,0-3.92.93,7.62,7.62,0,0,0-2.42,2.3,9.63,9.63,0,0,0-1.27,3.4,22.26,22.26,0,0,0-.34,4,37.67,37.67,0,0,0,.17,4,7.62,7.62,0,0,0,.86,2.89,6.44,6.44,0,0,0,2,2.19,18.34,18.34,0,0,0,3.63,1.84l9,3.58a22.49,22.49,0,0,1,6.35,3.51,15.36,15.36,0,0,1,3.8,4.67A21.81,21.81,0,0,1,726,448.3a61.62,61.62,0,0,1,.46,8,42.23,42.23,0,0,1-1,9.62,20.53,20.53,0,0,1-3.35,7.56,16.6,16.6,0,0,1-6.34,5.07,22.41,22.41,0,0,1-9.57,1.84,20.83,20.83,0,0,1-8-1.49,18.88,18.88,0,0,1-6.35-4.16,20.13,20.13,0,0,1-4.21-6.16,18.88,18.88,0,0,1-1.55-7.67v-4.38h11.76v3.69a9.59,9.59,0,0,0,1.9,5.82q1.9,2.59,6.4,2.6a10.28,10.28,0,0,0,4.67-.87,6.14,6.14,0,0,0,2.59-2.48,9.06,9.06,0,0,0,1.1-3.86c.11-1.5.17-3.17.17-5a50.71,50.71,0,0,0-.23-5.31,9.16,9.16,0,0,0-.92-3.35,6.59,6.59,0,0,0-2.13-2.07,29.75,29.75,0,0,0-3.52-1.73l-8.42-3.46q-7.6-3.11-10.2-8.24a28.32,28.32,0,0,1-2.6-12.85,30,30,0,0,1,1.27-8.77,20.11,20.11,0,0,1,3.81-7.15,17.4,17.4,0,0,1,6.16-4.78,20.63,20.63,0,0,1,8.94-1.79,19.59,19.59,0,0,1,8,1.61,20.63,20.63,0,0,1,6.29,4.27,17.84,17.84,0,0,1,5.3,12.68Z" transform="translate(-676.26 -254)" style="fill: #72718b"/>
          <path d="M754.19,479.71V445l-16.13-47.39h12.45L760,430.25h.23l9.46-32.63H782.1L766,445v34.7Z" transform="translate(-676.26 -254)" style="fill: #72718b"/>
          <path d="M796.05,479.71V397.62h11.3l15.1,43.47h.23l15-43.47h11.42v82.09H837.33V429.79h-.23l-11.65,35.28h-5.88L808,429.79h-.23v49.92Z" transform="translate(-676.26 -254)" style="fill: #72718b"/>
          <path d="M868.22,479.71V397.62H885.4a24,24,0,0,1,9.63,1.74,17.89,17.89,0,0,1,6.51,4.61,17.2,17.2,0,0,1,3.63,6.63,27.55,27.55,0,0,1,1.1,7.78v3a25.85,25.85,0,0,1-.52,5.64,13.45,13.45,0,0,1-1.56,4,16.16,16.16,0,0,1-6,5.54,12.74,12.74,0,0,1,6.11,5.76q2,3.79,2,10.37v4.62q0,10.83-5.25,16.6t-16.77,5.76Zm11.76-71v22.6h5.3c3.92,0,6.56-1,7.9-2.94s2-4.82,2-8.59-.75-6.46-2.25-8.3-4.21-2.77-8.12-2.77Zm0,33V468h5.08a12.47,12.47,0,0,0,5.59-1A7.17,7.17,0,0,0,893.7,464a10.93,10.93,0,0,0,1.27-4.38c.15-1.69.23-3.53.23-5.53a37.18,37.18,0,0,0-.34-5.42,9.9,9.9,0,0,0-1.39-3.92,6.53,6.53,0,0,0-3.11-2.36,14.85,14.85,0,0,0-5.19-.75Z" transform="translate(-676.26 -254)" style="fill: #72718b"/>
          <path d="M925.75,479.71V397.62h11.76v82.09Z" transform="translate(-676.26 -254)" style="fill: #72718b"/>
          <path d="M956.3,417a21,21,0,0,1,1.73-8.76,18.47,18.47,0,0,1,4.62-6.34,19.35,19.35,0,0,1,6.28-3.69,20.93,20.93,0,0,1,20.58,3.69,19.43,19.43,0,0,1,4.5,6.34,21,21,0,0,1,1.72,8.76v43.35a20.84,20.84,0,0,1-1.72,8.88,18.44,18.44,0,0,1-4.5,6.11,19.85,19.85,0,0,1-6.4,3.81,20.58,20.58,0,0,1-14.18,0,18.33,18.33,0,0,1-6.28-3.81,17.56,17.56,0,0,1-4.62-6.11,20.84,20.84,0,0,1-1.73-8.88Zm11.76,43.35c0,2.85.79,4.94,2.37,6.29a8.74,8.74,0,0,0,11.18,0c1.57-1.35,2.36-3.44,2.36-6.29V417c0-2.84-.79-4.94-2.36-6.28a8.74,8.74,0,0,0-11.18,0c-1.58,1.34-2.37,3.44-2.37,6.28Z" transform="translate(-676.26 -254)" style="fill: #72718b"/>
          <path d="M1020.52,479.71v-71h-13.61V397.62h39v11.07h-13.6v71Z" transform="translate(-676.26 -254)" style="fill: #72718b"/>
          <path d="M1059.48,479.71V397.62h11.77v82.09Z" transform="translate(-676.26 -254)" style="fill: #72718b"/>
          <path d="M1128.09,456.31v5.07a18.31,18.31,0,0,1-1.44,7.21,20.11,20.11,0,0,1-4,6.05,19.15,19.15,0,0,1-5.94,4.21,17.36,17.36,0,0,1-7.32,1.55,26,26,0,0,1-6.8-.92,16.13,16.13,0,0,1-6.23-3.22,17.94,17.94,0,0,1-4.55-5.94A20.91,20.91,0,0,1,1090,461v-45.2a20.09,20.09,0,0,1,1.38-7.5,17.79,17.79,0,0,1,3.92-6,18.35,18.35,0,0,1,6.06-4,20.3,20.3,0,0,1,7.78-1.44,17.85,17.85,0,0,1,13.49,5.42,19.45,19.45,0,0,1,4,6.28,21.3,21.3,0,0,1,1.44,7.9v4.61h-11.76v-3.92a9.55,9.55,0,0,0-2-6,6.37,6.37,0,0,0-5.31-2.54c-2.92,0-4.86.91-5.82,2.71a14.53,14.53,0,0,0-1.44,6.86v42a10.89,10.89,0,0,0,1.56,6c1,1.61,2.9,2.42,5.59,2.42a8.61,8.61,0,0,0,2.48-.41,7.5,7.5,0,0,0,2.47-1.32,7,7,0,0,0,1.74-2.54,10.5,10.5,0,0,0,.69-4v-4Z" transform="translate(-676.26 -254)" style="fill: #72718b"/>
        </g>
        <g>
          <path d="M1176.48,477.09V395h17.41q10.14,0,15.39,5.54t5.25,15.67v38.4q0,11.52-5.6,17t-16.08,5.48Zm11.76-71V466h5.41c3.31,0,5.66-.82,7-2.48s2.07-4.24,2.07-7.78V416.21q0-4.83-2-7.49t-7.15-2.65Z" transform="translate(-676.26 -254)" style="fill: #72718b"/>
          <path d="M1227,477.09,1245.31,395h9.8l18.33,82.09h-11.76l-3.46-17.64h-16l-3.46,17.64Zm29-28.71-5.76-29.74H1250l-5.77,29.74Z" transform="translate(-676.26 -254)" style="fill: #72718b"/>
          <path d="M1288.66,477.09v-71h-13.61V395h39v11.07h-13.61v71Z" transform="translate(-676.26 -254)" style="fill: #72718b"/>
          <path d="M1315.63,477.09,1334,395h9.8l18.33,82.09h-11.76l-3.46-17.64h-16l-3.45,17.64Zm29.06-28.71-5.76-29.74h-.24l-5.76,29.74Z" transform="translate(-676.26 -254)" style="fill: #72718b"/>
        </g>
        <g>
          <path d="M846.8,553.46a31.49,31.49,0,0,1,2.6-13.19,28,28,0,0,1,6.94-9.55,29.31,29.31,0,0,1,9.46-5.55,31.52,31.52,0,0,1,31,5.55,29.28,29.28,0,0,1,6.77,9.55,31.65,31.65,0,0,1,2.6,13.19v65.25a31.41,31.41,0,0,1-2.6,13.37,27.72,27.72,0,0,1-6.77,9.19,29.87,29.87,0,0,1-9.63,5.73,30.94,30.94,0,0,1-21.35,0,27.92,27.92,0,0,1-9.46-5.73,26.57,26.57,0,0,1-6.94-9.19,31.26,31.26,0,0,1-2.6-13.37Zm17.7,65.25q0,6.42,3.56,9.46a13.17,13.17,0,0,0,16.83,0q3.55-3,3.55-9.46V553.46q0-6.42-3.55-9.46a13.17,13.17,0,0,0-16.83,0q-3.55,3-3.56,9.46Z" transform="translate(-676.26 -254)" style="fill: #a1b593"/>
          <path d="M750.47,675.63V628H706.41V593.89H737V577.24H706.41V541h35.06V524.3H688.72V647.86h43.75V675a14,14,0,1,0,18,.64Z" transform="translate(-676.26 -254)" style="fill: #a1b593"/>
          <path d="M1286.19,593.89a14,14,0,1,0-2.35-16.65h-17.76V541h35.06V524.3h-52.76V647.86h52.76v-17.7h-35.06V593.89Z" transform="translate(-676.26 -254)" style="fill: #a1b593"/>
          <path d="M991.2,559.88V551.2q0-10.76-8-19.09a31,31,0,0,0-9.46-6.42,29.33,29.33,0,0,0-12.06-2.43A31.06,31.06,0,0,0,948.24,526a26.32,26.32,0,0,0-9.29,7.2,30.17,30.17,0,0,0-5.72,10.76,45,45,0,0,0-1.91,13.19q0,11.64,3.91,19.35t15.36,12.41l12.66,5.2a43.74,43.74,0,0,1,5.3,2.61,9.87,9.87,0,0,1,3.21,3.12,14,14,0,0,1,1.39,5,78.49,78.49,0,0,1,.34,8c0,2.78-.08,5.29-.26,7.55a13.74,13.74,0,0,1-1.64,5.81,9.37,9.37,0,0,1-3.91,3.73,15.5,15.5,0,0,1-7,1.31q-6.76,0-9.63-3.91a14.43,14.43,0,0,1-2.86-8.76v-.1a14,14,0,1,0-17.68,2.32,27.92,27.92,0,0,0,2.32,10.35,30.13,30.13,0,0,0,6.33,9.29,28.38,28.38,0,0,0,9.55,6.25,31.56,31.56,0,0,0,12,2.25,33.65,33.65,0,0,0,14.4-2.77,24.86,24.86,0,0,0,9.55-7.64,30.51,30.51,0,0,0,5-11.37,63.54,63.54,0,0,0,1.57-14.49,94,94,0,0,0-.7-12.06,32.72,32.72,0,0,0-2.6-9.45,22.87,22.87,0,0,0-5.73-7,33.53,33.53,0,0,0-9.55-5.29l-13.53-5.38a27.74,27.74,0,0,1-5.47-2.78,9.57,9.57,0,0,1-3-3.3,11.35,11.35,0,0,1-1.3-4.34,56.5,56.5,0,0,1-.27-6.07,33.14,33.14,0,0,1,.52-6,14.62,14.62,0,0,1,1.91-5.12,11.78,11.78,0,0,1,3.65-3.47A11.15,11.15,0,0,1,961,541q6.76,0,9.63,4.43a18.89,18.89,0,0,1,2.86,10.5v4Z" transform="translate(-676.26 -254)" style="fill: #a1b593"/>
          <path d="M1498.94,562.34c12.43,0,22.5-10,22.5-10s-10.07-10-22.5-10a26.89,26.89,0,0,0-9.26,1.75,28,28,0,0,0-7-12,31.09,31.09,0,0,0-9.45-6.42,29.41,29.41,0,0,0-12.07-2.43,31.06,31.06,0,0,0-13.45,2.69,26.37,26.37,0,0,0-9.28,7.2,30,30,0,0,0-5.73,10.76,45,45,0,0,0-1.91,13.19q0,11.64,3.91,19.35T1450,588.86l12.67,5.2a43.51,43.51,0,0,1,5.29,2.61,9.78,9.78,0,0,1,3.21,3.12,13.64,13.64,0,0,1,1.39,5,78.49,78.49,0,0,1,.34,8c0,2.78-.08,5.29-.26,7.55a13.74,13.74,0,0,1-1.64,5.81,9.26,9.26,0,0,1-3.91,3.73,15.5,15.5,0,0,1-7,1.31q-6.77,0-9.63-3.91a14.43,14.43,0,0,1-2.86-8.76V613h-17.71v6.6a28.16,28.16,0,0,0,2.35,11.53,30.13,30.13,0,0,0,6.33,9.29,28.48,28.48,0,0,0,9.55,6.25,31.56,31.56,0,0,0,12,2.25,33.65,33.65,0,0,0,14.4-2.77,24.86,24.86,0,0,0,9.55-7.64,30.68,30.68,0,0,0,5-11.37,64.12,64.12,0,0,0,1.56-14.49,94,94,0,0,0-.7-12.06,32.72,32.72,0,0,0-2.6-9.45,22.87,22.87,0,0,0-5.73-7,33.6,33.6,0,0,0-9.54-5.29l-13.54-5.38a27.74,27.74,0,0,1-5.47-2.78,9.57,9.57,0,0,1-3-3.3,11.53,11.53,0,0,1-1.3-4.34,56.84,56.84,0,0,1-.26-6.07,34.08,34.08,0,0,1,.51-6,14.63,14.63,0,0,1,1.92-5.12,11.75,11.75,0,0,1,3.64-3.47,11.18,11.18,0,0,1,5.9-1.39q6.76,0,9.63,4.43a17,17,0,0,1,1.75,3.58l-.55,0s-.55,14.18,7.86,23.33,22.58,9.81,22.58,9.81.42-11-5.2-19.86C1497.31,562.29,1498.12,562.34,1498.94,562.34Z" transform="translate(-676.26 -254)" style="fill: #a1b593"/>
          <path d="M1153.27,559.88V551.2a26.79,26.79,0,0,0-8-19.09,31.09,31.09,0,0,0-9.45-6.42,29.4,29.4,0,0,0-12.06-2.43,31,31,0,0,0-13.45,2.69,26.32,26.32,0,0,0-9.29,7.2,30.19,30.19,0,0,0-5.73,10.76,45,45,0,0,0-1.9,13.19q0,11.64,3.9,19.35t15.36,12.41l12.67,5.2a43.51,43.51,0,0,1,5.29,2.61,9.78,9.78,0,0,1,3.21,3.12,13.64,13.64,0,0,1,1.39,5,75.3,75.3,0,0,1,.35,8c0,2.78-.09,5.29-.26,7.55a13.6,13.6,0,0,1-1.65,5.81,9.29,9.29,0,0,1-3.9,3.73,15.57,15.57,0,0,1-7,1.31q-6.77,0-9.63-3.91a14.42,14.42,0,0,1-2.84-8.22l.86.07s.6-14.18-7.78-23.36-22.55-9.88-22.55-9.88-.46,11,5.14,19.87c-.8-.08-1.61-.13-2.44-.13-12.42,0-22.53,9.93-22.53,9.93s10,10,22.47,10.07a27.19,27.19,0,0,0,9.41-1.77,26.68,26.68,0,0,0,2,7.23,30,30,0,0,0,6.34,9.29,28.43,28.43,0,0,0,9.54,6.25,31.56,31.56,0,0,0,12,2.25,33.73,33.73,0,0,0,14.41-2.77,24.82,24.82,0,0,0,9.54-7.64,30.68,30.68,0,0,0,5-11.37,63.55,63.55,0,0,0,1.56-14.49,92.26,92.26,0,0,0-.7-12.06,32.72,32.72,0,0,0-2.6-9.45,23,23,0,0,0-5.72-7,33.67,33.67,0,0,0-9.55-5.29l-13.54-5.38a27.62,27.62,0,0,1-5.46-2.78,9.51,9.51,0,0,1-3-3.3,11.53,11.53,0,0,1-1.3-4.34,56.84,56.84,0,0,1-.26-6.07,34.08,34.08,0,0,1,.51-6,14.83,14.83,0,0,1,1.92-5.12,11.75,11.75,0,0,1,3.64-3.47,11.21,11.21,0,0,1,5.91-1.39q6.75,0,9.62,4.43a18.89,18.89,0,0,1,2.87,10.5v4Z" transform="translate(-676.26 -254)" style="fill: #a1b593"/>
          <path d="M803.59,618.71a15.52,15.52,0,0,1-1,6.07,10.4,10.4,0,0,1-2.61,3.82,11.09,11.09,0,0,1-3.73,2,13,13,0,0,1-3.72.61q-6.09,0-8.42-3.65a16.36,16.36,0,0,1-2.35-9V555.37A21.94,21.94,0,0,1,783.89,545q2.18-4.08,8.77-4.08a9.58,9.58,0,0,1,8,3.82,14.3,14.3,0,0,1,3,9v1c-2.72,4-5.56,9.55-5.85,15.85-.57,12.42,9,22.94,9,22.94a41.24,41.24,0,0,0,7.1-9.28c8.65,6.23,19.9,6.32,19.9,6.32s0-14.2-8.77-23a23.94,23.94,0,0,0-3.64-3V552.76a31.81,31.81,0,0,0-2.17-11.88,28.91,28.91,0,0,0-6-9.46q-7.8-8.16-20.3-8.16a30.72,30.72,0,0,0-11.71,2.17,27.35,27.35,0,0,0-9.11,6,26.61,26.61,0,0,0-5.91,9A30.09,30.09,0,0,0,764,551.72v68q0,8.5,2.69,14a27,27,0,0,0,6.86,8.94,24.16,24.16,0,0,0,9.37,4.86,39.83,39.83,0,0,0,10.24,1.38,26.22,26.22,0,0,0,11-2.33,29,29,0,0,0,8.93-6.34,29.94,29.94,0,0,0,6-9.12,27.4,27.4,0,0,0,2.17-10.84v-7.64h-17.7Z" transform="translate(-676.26 -254)" style="fill: #a1b593"/>
          <path d="M1228.42,541V524.3h-58.66V541h20.48v134.2a14,14,0,1,0,17.7,0V541Z" transform="translate(-676.26 -254)" style="fill: #a1b593"/>
          <path d="M1473.1,671a14,14,0,0,0-11,5.38h-57.52V524.3h-17.18l-22.56,65.43h-.35l-22.74-65.43h-17V647.86h17.69V572.72h.36l17.35,53.11H1369l17.53-53.11h.35V677.91h.05v16.47h75.81A14,14,0,1,0,1473.1,671Z" transform="translate(-676.26 -254)" style="fill: #a1b593"/>
          <path d="M1050.72,645.91V595.63L1075,524.3h-18.74L1042,573.42h-.35l-12.32-42.53a29.18,29.18,0,0,0,.48-13.58c-2.72-12.13-14.69-19.76-14.69-19.76a40.6,40.6,0,0,0-5.27,15.8l-.19-.13c-10.29-7-24.24-4.33-24.24-4.33s2.74,13.93,13,20.89a29.76,29.76,0,0,0,13.67,4.61L1033,595.63v50.28l.09,28.47H979.43a14,14,0,1,0-4.19,18h75.86Z" transform="translate(-676.26 -254)" style="fill: #a1b593"/>
        </g>
      </g>
      <g>
        <path d="M692.68,783v-53.4h11.17a15.72,15.72,0,0,1,6.27,1.13,11.83,11.83,0,0,1,4.23,3,11.24,11.24,0,0,1,2.37,4.31,18.09,18.09,0,0,1,.71,5.06V745a16.76,16.76,0,0,1-.34,3.68,8.67,8.67,0,0,1-1,2.62,10.52,10.52,0,0,1-3.9,3.6,8.29,8.29,0,0,1,4,3.75,14.88,14.88,0,0,1,1.28,6.75v3q0,7.05-3.41,10.8T703.1,783Zm7.65-46.2v14.7h3.45q3.83,0,5.14-1.91a9.93,9.93,0,0,0,1.31-5.59,8.47,8.47,0,0,0-1.46-5.4q-1.47-1.8-5.29-1.8Zm0,21.45v17.1h3.3a8.1,8.1,0,0,0,3.64-.67,4.68,4.68,0,0,0,2-1.88,7.06,7.06,0,0,0,.83-2.85q.15-1.65.15-3.6a24,24,0,0,0-.23-3.52,6.42,6.42,0,0,0-.9-2.55,4.28,4.28,0,0,0-2-1.54,9.55,9.55,0,0,0-3.38-.49Z" transform="translate(-676.26 -254)" style="fill: #687161"/>
        <path d="M752.45,745v38H744.8v-3.67h-.15a11,11,0,0,1-2.88,3,7.51,7.51,0,0,1-4.32,1.16,8.63,8.63,0,0,1-2.85-.49,6.53,6.53,0,0,1-2.55-1.61,8.09,8.09,0,0,1-1.8-2.89,12.08,12.08,0,0,1-.67-4.31V745h7.65v26.32a5.09,5.09,0,0,0,1,3.3,3.38,3.38,0,0,0,2.78,1.2,3.23,3.23,0,0,0,3-1.35,7.55,7.55,0,0,0,.82-3.9V745Z" transform="translate(-676.26 -254)" style="fill: #687161"/>
        <path d="M778,755.61a3.8,3.8,0,0,0-1.24-2.93,4,4,0,0,0-2.66-1,3.41,3.41,0,0,0-2.78,1.16,4,4,0,0,0-1,2.66,4.4,4.4,0,0,0,.52,2.06,4.86,4.86,0,0,0,2.7,1.84l4.5,1.8c2.85,1.1,4.82,2.6,5.89,4.5A12.39,12.39,0,0,1,785.6,772a11.36,11.36,0,0,1-.86,4.46,11.83,11.83,0,0,1-2.36,3.64,10.75,10.75,0,0,1-3.6,2.47,11.52,11.52,0,0,1-4.58.9,11,11,0,0,1-7.8-2.92,10.72,10.72,0,0,1-2.55-3.57,12.68,12.68,0,0,1-1.05-5H770a7.35,7.35,0,0,0,1.09,2.92,3.33,3.33,0,0,0,3,1.35,4.48,4.48,0,0,0,3-1.09,3.69,3.69,0,0,0,1.31-3,4.44,4.44,0,0,0-.82-2.7,6.49,6.49,0,0,0-3-1.95l-3.68-1.35a12.51,12.51,0,0,1-5.66-4,10.27,10.27,0,0,1-2.06-6.48,11.09,11.09,0,0,1,.9-4.47,10.89,10.89,0,0,1,2.47-3.56,10.2,10.2,0,0,1,3.53-2.29,12,12,0,0,1,4.35-.78,11.1,11.1,0,0,1,4.31.82,9.81,9.81,0,0,1,3.41,2.33,11,11,0,0,1,2.25,3.56,11.7,11.7,0,0,1,.83,4.39Z" transform="translate(-676.26 -254)" style="fill: #687161"/>
        <path d="M796,737.23v-7.65h7.65v7.65ZM796,783V745h7.65v38Z" transform="translate(-676.26 -254)" style="fill: #687161"/>
        <path d="M815.3,783V745H823v3.67h.15a10.73,10.73,0,0,1,2.89-3,7.38,7.38,0,0,1,4.31-1.16,8.88,8.88,0,0,1,2.85.48,6.67,6.67,0,0,1,2.55,1.62,8.13,8.13,0,0,1,1.8,2.88,12.16,12.16,0,0,1,.68,4.32V783h-7.65V756.66a5.09,5.09,0,0,0-1-3.3,3.36,3.36,0,0,0-2.77-1.2,3.23,3.23,0,0,0-3,1.35,7.54,7.54,0,0,0-.83,3.9V783Z" transform="translate(-676.26 -254)" style="fill: #687161"/>
        <path d="M872,766.86H856.85V772a3.7,3.7,0,0,0,1,2.78,3.79,3.79,0,0,0,2.74,1c1.45,0,2.41-.42,2.89-1.27a6.94,6.94,0,0,0,.86-2.55H872a11,11,0,0,1-3.07,8.1,10.75,10.75,0,0,1-3.6,2.47,11.91,11.91,0,0,1-4.73.9,11.7,11.7,0,0,1-6.11-1.5,10.18,10.18,0,0,1-5-7.42,28.27,28.27,0,0,1-.3-4.28V757.71a28.27,28.27,0,0,1,.3-4.28,10.18,10.18,0,0,1,5-7.42,11.7,11.7,0,0,1,6.11-1.5,12.13,12.13,0,0,1,4.76.9,10.62,10.62,0,0,1,3.64,2.47,12.3,12.3,0,0,1,3,8.48Zm-15.15-6h7.5v-4.35a4.69,4.69,0,0,0-1-3.27,4,4,0,0,0-5.48,0,4.69,4.69,0,0,0-1,3.27Z" transform="translate(-676.26 -254)" style="fill: #687161"/>
        <path d="M896.9,755.61a3.8,3.8,0,0,0-1.24-2.93,4,4,0,0,0-2.66-1,3.39,3.39,0,0,0-2.77,1.16,4,4,0,0,0-1,2.66,4.42,4.42,0,0,0,.53,2.06,4.86,4.86,0,0,0,2.7,1.84l4.5,1.8q4.28,1.65,5.88,4.5a12.4,12.4,0,0,1,1.62,6.23,11.37,11.37,0,0,1-.87,4.46,11.83,11.83,0,0,1-2.36,3.64,10.75,10.75,0,0,1-3.6,2.47,11.47,11.47,0,0,1-4.57.9,11,11,0,0,1-7.8-2.92,10.72,10.72,0,0,1-2.55-3.57,12.68,12.68,0,0,1-1.05-5h7.2a7.33,7.33,0,0,0,1.08,2.92,3.33,3.33,0,0,0,3,1.35,4.48,4.48,0,0,0,3-1.09,3.7,3.7,0,0,0,1.32-3,4.44,4.44,0,0,0-.83-2.7,6.49,6.49,0,0,0-3-1.95l-3.67-1.35a12.54,12.54,0,0,1-5.67-4,10.27,10.27,0,0,1-2.06-6.48,11.09,11.09,0,0,1,.9-4.47,10.91,10.91,0,0,1,2.48-3.56,10.16,10.16,0,0,1,3.52-2.29,12,12,0,0,1,4.35-.78,11.1,11.1,0,0,1,4.31.82,9.85,9.85,0,0,1,3.42,2.33,11,11,0,0,1,2.25,3.56,11.69,11.69,0,0,1,.82,4.39Z" transform="translate(-676.26 -254)" style="fill: #687161"/>
        <path d="M928.7,755.61a3.8,3.8,0,0,0-1.24-2.93,4,4,0,0,0-2.66-1,3.38,3.38,0,0,0-2.77,1.16,4,4,0,0,0-1,2.66,4.3,4.3,0,0,0,.53,2.06,4.79,4.79,0,0,0,2.7,1.84l4.5,1.8q4.28,1.65,5.88,4.5a12.4,12.4,0,0,1,1.62,6.23,11.37,11.37,0,0,1-.87,4.46,11.83,11.83,0,0,1-2.36,3.64,10.75,10.75,0,0,1-3.6,2.47,11.47,11.47,0,0,1-4.57.9,11,11,0,0,1-7.8-2.92,10.58,10.58,0,0,1-2.55-3.57,12.51,12.51,0,0,1-1-5h7.2a7.33,7.33,0,0,0,1.08,2.92,3.33,3.33,0,0,0,3,1.35,4.48,4.48,0,0,0,3-1.09,3.7,3.7,0,0,0,1.32-3,4.44,4.44,0,0,0-.83-2.7,6.49,6.49,0,0,0-3-1.95l-3.67-1.35a12.54,12.54,0,0,1-5.67-4,10.27,10.27,0,0,1-2.06-6.48,11.09,11.09,0,0,1,.9-4.47,10.91,10.91,0,0,1,2.48-3.56,10.07,10.07,0,0,1,3.52-2.29,12,12,0,0,1,4.35-.78,11.1,11.1,0,0,1,4.31.82,9.85,9.85,0,0,1,3.42,2.33,11.37,11.37,0,0,1,2.25,3.56,11.69,11.69,0,0,1,.82,4.39Z" transform="translate(-676.26 -254)" style="fill: #687161"/>
        <path d="M966.65,783v-53.4h7.65V783Z" transform="translate(-676.26 -254)" style="fill: #687161"/>
        <path d="M986.67,783V745h7.65v3.67h.15a10.87,10.87,0,0,1,2.89-3,7.4,7.4,0,0,1,4.31-1.16,8.88,8.88,0,0,1,2.85.48,6.67,6.67,0,0,1,2.55,1.62,8.13,8.13,0,0,1,1.8,2.88,12.16,12.16,0,0,1,.68,4.32V783h-7.65V756.66a5.09,5.09,0,0,0-1-3.3,3.36,3.36,0,0,0-2.77-1.2,3.23,3.23,0,0,0-3,1.35,7.54,7.54,0,0,0-.83,3.9V783Z" transform="translate(-676.26 -254)" style="fill: #687161"/>
        <path d="M1021.25,745V733.41h7.65V745h4.72v6h-4.72V772a6.48,6.48,0,0,0,.26,2.1,2.12,2.12,0,0,0,.86,1.13,3.27,3.27,0,0,0,1.47.45c.57,0,1.28.07,2.13.07V783h-3.15a10.28,10.28,0,0,1-4.38-.82,7.9,7.9,0,0,1-2.82-2.1,8.21,8.21,0,0,1-1.53-2.89,10.59,10.59,0,0,1-.49-3.11V751h-3.83v-6Z" transform="translate(-676.26 -254)" style="fill: #687161"/>
        <path d="M1064.07,766.86h-15.15V772a3.7,3.7,0,0,0,1,2.78,3.79,3.79,0,0,0,2.74,1c1.45,0,2.41-.42,2.89-1.27a6.94,6.94,0,0,0,.86-2.55h7.65a11,11,0,0,1-3.07,8.1,10.75,10.75,0,0,1-3.6,2.47,11.91,11.91,0,0,1-4.73.9,11.7,11.7,0,0,1-6.11-1.5,10.18,10.18,0,0,1-5-7.42,28.27,28.27,0,0,1-.3-4.28V757.71a28.27,28.27,0,0,1,.3-4.28,10.18,10.18,0,0,1,5-7.42,11.7,11.7,0,0,1,6.11-1.5,12.13,12.13,0,0,1,4.76.9,10.62,10.62,0,0,1,3.64,2.47,12.3,12.3,0,0,1,3,8.48Zm-15.15-6h7.5v-4.35a4.69,4.69,0,0,0-1-3.27,4,4,0,0,0-5.48,0,4.69,4.69,0,0,0-1,3.27Z" transform="translate(-676.26 -254)" style="fill: #687161"/>
        <path d="M1082.75,787.41a4.3,4.3,0,0,0,1.08,2.55,3.68,3.68,0,0,0,3,1.2,3.07,3.07,0,0,0,2.7-1.17,5,5,0,0,0,.82-3v-7.5h-.15a9.27,9.27,0,0,1-3,2.89,8.07,8.07,0,0,1-4.08,1q-4.8,0-6.68-3.6a10.17,10.17,0,0,1-1-3.15,33.2,33.2,0,0,1-.3-5V757.18a58.86,58.86,0,0,1,.22-6.07,7.26,7.26,0,0,1,3.53-5.63,7.6,7.6,0,0,1,4.27-1,8.7,8.7,0,0,1,2.44.3,7.31,7.31,0,0,1,1.84.82,7.73,7.73,0,0,1,1.5,1.24c.45.47.92,1,1.42,1.54V745H1098v42.67a12.73,12.73,0,0,1-.64,3.94,9.61,9.61,0,0,1-2.06,3.56,10.5,10.5,0,0,1-3.6,2.66,12.07,12.07,0,0,1-5.17,1,12.37,12.37,0,0,1-3.6-.57,9.35,9.35,0,0,1-3.45-1.91,10.8,10.8,0,0,1-2.82-3.41,15.16,15.16,0,0,1-1.53-5.51Zm0-16.13a6.18,6.18,0,0,0,.78,3.15,3.15,3.15,0,0,0,3,1.35,3.58,3.58,0,0,0,2.73-1.16,4.15,4.15,0,0,0,1.09-3V756.88a5.28,5.28,0,0,0-1-3.41,3.35,3.35,0,0,0-2.77-1.31,3.12,3.12,0,0,0-2.85,1.42,6.94,6.94,0,0,0-.9,3.75Z" transform="translate(-676.26 -254)" style="fill: #687161"/>
        <path d="M1109.67,783V745h7.65v4a23.24,23.24,0,0,1,4.58-3.3,11.68,11.68,0,0,1,5.55-1.2v8.1a6.23,6.23,0,0,0-2.33-.45,9,9,0,0,0-2.59.41A6.69,6.69,0,0,0,1120,754a7.22,7.22,0,0,0-2,2.55,9,9,0,0,0-.75,3.9V783Z" transform="translate(-676.26 -254)" style="fill: #687161"/>
        <path d="M1150,783v-3.9h-.15a14.26,14.26,0,0,1-3,3.23,7.2,7.2,0,0,1-4.31,1.12,9.74,9.74,0,0,1-2.74-.41,7.12,7.12,0,0,1-2.66-1.54,7.37,7.37,0,0,1-2.07-3,14.19,14.19,0,0,1-.78-5.13,27.25,27.25,0,0,1,.52-5.67,9,9,0,0,1,2-4.08,8.22,8.22,0,0,1,3.68-2.37,18.91,18.91,0,0,1,5.92-.78h.83a4.18,4.18,0,0,1,.82.07,4.62,4.62,0,0,0,.9.08,9.12,9.12,0,0,1,1.13.07v-4a5.85,5.85,0,0,0-.83-3.23,3.3,3.3,0,0,0-3-1.27,4.33,4.33,0,0,0-2.74,1,4.65,4.65,0,0,0-1.61,2.85h-7.42a12.23,12.23,0,0,1,3.45-8.25,10.77,10.77,0,0,1,3.6-2.36,12.22,12.22,0,0,1,4.72-.86,13.28,13.28,0,0,1,4.5.75,10.29,10.29,0,0,1,3.68,2.25,11,11,0,0,1,2.4,3.75,14.08,14.08,0,0,1,.9,5.25V783Zm0-16.35a12.47,12.47,0,0,0-2.1-.22,7.48,7.48,0,0,0-4.24,1.16c-1.18.77-1.76,2.19-1.76,4.24a5.56,5.56,0,0,0,1.05,3.52,3.49,3.49,0,0,0,2.92,1.35,3.79,3.79,0,0,0,3-1.27,5.41,5.41,0,0,0,1.09-3.6Z" transform="translate(-676.26 -254)" style="fill: #687161"/>
        <path d="M1168.62,745V733.41h7.65V745H1181v6h-4.73V772a6.77,6.77,0,0,0,.26,2.1,2.13,2.13,0,0,0,.87,1.13,3.22,3.22,0,0,0,1.46.45c.57,0,1.28.07,2.14.07V783h-3.15a10.3,10.3,0,0,1-4.39-.82,7.86,7.86,0,0,1-2.81-2.1,8.23,8.23,0,0,1-1.54-2.89,10.59,10.59,0,0,1-.49-3.11V751h-3.82v-6Z" transform="translate(-676.26 -254)" style="fill: #687161"/>
        <path d="M1189.32,737.23v-7.65H1197v7.65Zm0,45.75V745H1197v38Z" transform="translate(-676.26 -254)" style="fill: #687161"/>
        <path d="M1208,757.71a27,27,0,0,1,.3-4.28,10.15,10.15,0,0,1,1.12-3.45,10.36,10.36,0,0,1,3.86-4,13.21,13.21,0,0,1,12.23,0,10.18,10.18,0,0,1,5,7.42,29.63,29.63,0,0,1,.3,4.28v12.52a29.63,29.63,0,0,1-.3,4.28,10.18,10.18,0,0,1-5,7.42,13.21,13.21,0,0,1-12.23,0,10.36,10.36,0,0,1-3.86-4,10.15,10.15,0,0,1-1.12-3.45,27,27,0,0,1-.3-4.28Zm7.64,13.72a4.6,4.6,0,0,0,1,3.26,4,4,0,0,0,5.47,0,4.6,4.6,0,0,0,1-3.26V756.51a4.64,4.64,0,0,0-1-3.27,4,4,0,0,0-5.47,0,4.64,4.64,0,0,0-1,3.27Z" transform="translate(-676.26 -254)" style="fill: #687161"/>
        <path d="M1241.82,783V745h7.65v3.67h.15a10.73,10.73,0,0,1,2.89-3,7.38,7.38,0,0,1,4.31-1.16,8.88,8.88,0,0,1,2.85.48,6.67,6.67,0,0,1,2.55,1.62,8.13,8.13,0,0,1,1.8,2.88,12.18,12.18,0,0,1,.67,4.32V783h-7.64V756.66a5.09,5.09,0,0,0-1-3.3,3.37,3.37,0,0,0-2.77-1.2,3.21,3.21,0,0,0-3,1.35,7.44,7.44,0,0,0-.83,3.9V783Z" transform="translate(-676.26 -254)" style="fill: #687161"/>
        <path d="M1290.27,755.61a3.8,3.8,0,0,0-1.24-2.93,4,4,0,0,0-2.66-1,3.41,3.41,0,0,0-2.78,1.16,4,4,0,0,0-1,2.66,4.4,4.4,0,0,0,.52,2.06,4.86,4.86,0,0,0,2.7,1.84l4.5,1.8c2.85,1.1,4.82,2.6,5.89,4.5a12.39,12.39,0,0,1,1.61,6.23,11.55,11.55,0,0,1-.86,4.46,11.83,11.83,0,0,1-2.36,3.64,10.75,10.75,0,0,1-3.6,2.47,11.52,11.52,0,0,1-4.58.9,11,11,0,0,1-7.8-2.92,10.72,10.72,0,0,1-2.55-3.57,12.68,12.68,0,0,1-1-5h7.2a7.35,7.35,0,0,0,1.09,2.92,3.33,3.33,0,0,0,3,1.35,4.48,4.48,0,0,0,3-1.09,3.69,3.69,0,0,0,1.31-3,4.44,4.44,0,0,0-.82-2.7,6.49,6.49,0,0,0-3-1.95l-3.68-1.35a12.51,12.51,0,0,1-5.66-4,10.27,10.27,0,0,1-2.06-6.48,11.09,11.09,0,0,1,.9-4.47,10.89,10.89,0,0,1,2.47-3.56,10.2,10.2,0,0,1,3.53-2.29,12,12,0,0,1,4.35-.78,11.1,11.1,0,0,1,4.31.82,9.91,9.91,0,0,1,3.41,2.33,11,11,0,0,1,2.25,3.56,11.7,11.7,0,0,1,.83,4.39Z" transform="translate(-676.26 -254)" style="fill: #687161"/>
        <path d="M693.2,853V821h-3.75v-6h3.75v-5.18a11.86,11.86,0,0,1,.83-4.69,9,9,0,0,1,2.25-3.18,7.68,7.68,0,0,1,3.11-1.8,12.72,12.72,0,0,1,3.64-.53h3.52v7.2H703.1c-1.5,0-2.25.88-2.25,2.63V815h5.7v6h-5.7v32Z" transform="translate(-676.26 -254)" style="fill: #687161"/>
        <path d="M713.6,827.71a28.27,28.27,0,0,1,.3-4.28,10.18,10.18,0,0,1,5-7.42,13.21,13.21,0,0,1,12.23,0,10.12,10.12,0,0,1,5,7.42,28.27,28.27,0,0,1,.3,4.28v12.52a28.27,28.27,0,0,1-.3,4.28,10.12,10.12,0,0,1-5,7.42,13.21,13.21,0,0,1-12.23,0,10.18,10.18,0,0,1-5-7.42,28.27,28.27,0,0,1-.3-4.28Zm7.65,13.72a4.6,4.6,0,0,0,1,3.26,4,4,0,0,0,5.47,0,4.6,4.6,0,0,0,1-3.26V826.51a4.64,4.64,0,0,0-1-3.27,4,4,0,0,0-5.47,0,4.64,4.64,0,0,0-1,3.27Z" transform="translate(-676.26 -254)" style="fill: #687161"/>
        <path d="M747.43,853V815h7.65v4a23.19,23.19,0,0,1,4.57-3.3,11.68,11.68,0,0,1,5.55-1.2v8.1a6.18,6.18,0,0,0-2.32-.45,8.92,8.92,0,0,0-2.59.41,6.62,6.62,0,0,0-2.51,1.39,7.22,7.22,0,0,0-1.95,2.55,9,9,0,0,0-.75,3.9V853Z" transform="translate(-676.26 -254)" style="fill: #687161"/>
        <path d="M793,815V803.41h7.65V815h4.72v6h-4.72V842a6.48,6.48,0,0,0,.26,2.1,2.07,2.07,0,0,0,.86,1.13,3.26,3.26,0,0,0,1.46.45c.58,0,1.29.07,2.14.07V853h-3.15a10.28,10.28,0,0,1-4.38-.82,7.9,7.9,0,0,1-2.82-2.1,8.39,8.39,0,0,1-1.54-2.89,10.9,10.9,0,0,1-.48-3.11V821H789.2v-6Z" transform="translate(-676.26 -254)" style="fill: #687161"/>
        <path d="M813.73,853v-53.4h7.65v19h.15a10.84,10.84,0,0,1,2.88-3,7.44,7.44,0,0,1,4.32-1.16,8.88,8.88,0,0,1,2.85.48,6.67,6.67,0,0,1,2.55,1.62,8.13,8.13,0,0,1,1.8,2.88,12.18,12.18,0,0,1,.67,4.32V853H829V826.66a5.09,5.09,0,0,0-1-3.3,3.38,3.38,0,0,0-2.78-1.2,3.23,3.23,0,0,0-3,1.35,7.55,7.55,0,0,0-.82,3.9V853Z" transform="translate(-676.26 -254)" style="fill: #687161"/>
        <path d="M870.43,836.86H855.28V842a3.66,3.66,0,0,0,1,2.78,3.78,3.78,0,0,0,2.74,1c1.45,0,2.41-.42,2.88-1.27a6.79,6.79,0,0,0,.87-2.55h7.65a11,11,0,0,1-3.08,8.1,10.75,10.75,0,0,1-3.6,2.47,13.06,13.06,0,0,1-10.84-.6,10.12,10.12,0,0,1-5-7.42,28.27,28.27,0,0,1-.3-4.28V827.71a28.27,28.27,0,0,1,.3-4.28,10.12,10.12,0,0,1,5-7.42,11.76,11.76,0,0,1,6.12-1.5,12.16,12.16,0,0,1,4.76.9,10.72,10.72,0,0,1,3.64,2.47,12.3,12.3,0,0,1,3,8.48Zm-15.15-6h7.5v-4.35a4.64,4.64,0,0,0-1-3.27,4,4,0,0,0-5.47,0,4.64,4.64,0,0,0-1,3.27Z" transform="translate(-676.26 -254)" style="fill: #687161"/>
        <path d="M900.2,853v-7.2l13.8-26a9.5,9.5,0,0,0,1.2-3.42q.15-1.46.15-3.63c0-.65,0-1.34,0-2.07a4.92,4.92,0,0,0-.41-1.91,3.2,3.2,0,0,0-3.3-2,3.46,3.46,0,0,0-3.75,3.83V815H900.2v-4.2a11.3,11.3,0,0,1,.9-4.5,11.65,11.65,0,0,1,2.48-3.68,11,11,0,0,1,3.59-2.51,10.83,10.83,0,0,1,4.5-.94,11.15,11.15,0,0,1,5.14,1.09,10.26,10.26,0,0,1,3.57,3,12.83,12.83,0,0,1,2,4.28,19.58,19.58,0,0,1,.64,5.1c0,1.3,0,2.38-.08,3.26a18.16,18.16,0,0,1-.29,2.51,11.65,11.65,0,0,1-.75,2.4c-.36.8-.83,1.78-1.43,2.93L909.2,845.33H923V853Z" transform="translate(-676.26 -254)" style="fill: #687161"/>
        <path d="M942.58,853v-45.3l-7.66,5.63v-8.1l7.66-5.63h7.64V853Z" transform="translate(-676.26 -254)" style="fill: #687161"/>
        <path d="M981.27,825.61a3.83,3.83,0,0,0-1.23-2.93,4,4,0,0,0-2.66-1,3.4,3.4,0,0,0-2.78,1.16,4,4,0,0,0-1,2.66,4.4,4.4,0,0,0,.52,2.06,4.86,4.86,0,0,0,2.7,1.84l4.5,1.8q4.27,1.65,5.89,4.5a12.49,12.49,0,0,1,1.61,6.23,11.55,11.55,0,0,1-.86,4.46,12.2,12.2,0,0,1-2.36,3.64,10.89,10.89,0,0,1-3.61,2.47,11.47,11.47,0,0,1-4.57.9,11,11,0,0,1-7.8-2.92,10.72,10.72,0,0,1-2.55-3.57,12.68,12.68,0,0,1-1.05-5h7.2a7.2,7.2,0,0,0,1.09,2.92,3.31,3.31,0,0,0,3,1.35,4.52,4.52,0,0,0,3-1.09,3.72,3.72,0,0,0,1.31-3,4.44,4.44,0,0,0-.83-2.7,6.49,6.49,0,0,0-3-1.95l-3.67-1.35a12.46,12.46,0,0,1-5.66-4,10.22,10.22,0,0,1-2.07-6.48,11.09,11.09,0,0,1,.9-4.47,10.91,10.91,0,0,1,2.48-3.56,10.16,10.16,0,0,1,3.52-2.29,12,12,0,0,1,4.35-.78,11.19,11.19,0,0,1,4.32.82,9.91,9.91,0,0,1,3.41,2.33,11,11,0,0,1,2.25,3.56,11.69,11.69,0,0,1,.82,4.39Z" transform="translate(-676.26 -254)" style="fill: #687161"/>
        <path d="M999.2,815V803.41h7.65V815h4.72v6h-4.72V842a6.77,6.77,0,0,0,.26,2.1,2.12,2.12,0,0,0,.86,1.13,3.27,3.27,0,0,0,1.47.45c.57,0,1.28.07,2.13.07V853h-3.15a10.28,10.28,0,0,1-4.38-.82,7.9,7.9,0,0,1-2.82-2.1,8.21,8.21,0,0,1-1.53-2.89,10.59,10.59,0,0,1-.49-3.11V821h-3.83v-6Z" transform="translate(-676.26 -254)" style="fill: #687161"/>
        <path d="M1047.35,842a3.7,3.7,0,0,0,1,2.78,3.79,3.79,0,0,0,2.74,1c1.45,0,2.41-.42,2.89-1.27a6.94,6.94,0,0,0,.86-2.55h7.65a11,11,0,0,1-3.08,8.1,10.75,10.75,0,0,1-3.6,2.47,11.86,11.86,0,0,1-4.72.9,11.7,11.7,0,0,1-6.11-1.5,10.1,10.1,0,0,1-5-7.42,28.27,28.27,0,0,1-.3-4.28V827.71a28.27,28.27,0,0,1,.3-4.28,10.1,10.1,0,0,1,5-7.42,11.7,11.7,0,0,1,6.11-1.5,12.13,12.13,0,0,1,4.76.9,10.62,10.62,0,0,1,3.64,2.47,12.73,12.73,0,0,1,3,8.78h-7.65a4.94,4.94,0,0,0-1-3.42,4,4,0,0,0-5.48,0,4.69,4.69,0,0,0-1,3.27Z" transform="translate(-676.26 -254)" style="fill: #687161"/>
        <path d="M1094.52,836.86h-15.15V842a3.7,3.7,0,0,0,1,2.78,3.79,3.79,0,0,0,2.74,1c1.45,0,2.41-.42,2.89-1.27a6.94,6.94,0,0,0,.86-2.55h7.65a11,11,0,0,1-3.07,8.1,10.75,10.75,0,0,1-3.6,2.47,11.91,11.91,0,0,1-4.73.9,11.7,11.7,0,0,1-6.11-1.5,10.18,10.18,0,0,1-5-7.42,28.27,28.27,0,0,1-.3-4.28V827.71a28.27,28.27,0,0,1,.3-4.28,10.18,10.18,0,0,1,5-7.42,11.7,11.7,0,0,1,6.11-1.5,12.13,12.13,0,0,1,4.76.9,10.62,10.62,0,0,1,3.64,2.47,12.3,12.3,0,0,1,3,8.48Zm-15.15-6h7.5v-4.35a4.64,4.64,0,0,0-1-3.27,4,4,0,0,0-5.48,0,4.69,4.69,0,0,0-1,3.27Z" transform="translate(-676.26 -254)" style="fill: #687161"/>
        <path d="M1105.55,853V815h7.65v3.67h.15a10.84,10.84,0,0,1,2.88-3,7.44,7.44,0,0,1,4.32-1.16,8.88,8.88,0,0,1,2.85.48,6.67,6.67,0,0,1,2.55,1.62,8.13,8.13,0,0,1,1.8,2.88,12.18,12.18,0,0,1,.67,4.32V853h-7.65V826.66a5.09,5.09,0,0,0-1-3.3,3.38,3.38,0,0,0-2.78-1.2,3.23,3.23,0,0,0-3,1.35,7.55,7.55,0,0,0-.82,3.9V853Z" transform="translate(-676.26 -254)" style="fill: #687161"/>
        <path d="M1140.12,815V803.41h7.65V815h4.73v6h-4.73V842a6.77,6.77,0,0,0,.26,2.1,2.13,2.13,0,0,0,.87,1.13,3.22,3.22,0,0,0,1.46.45c.57,0,1.28.07,2.14.07V853h-3.15a10.3,10.3,0,0,1-4.39-.82,7.86,7.86,0,0,1-2.81-2.1,8.23,8.23,0,0,1-1.54-2.89,10.59,10.59,0,0,1-.49-3.11V821h-3.82v-6Z" transform="translate(-676.26 -254)" style="fill: #687161"/>
        <path d="M1183.7,815v38h-7.65v-3.67h-.15a11,11,0,0,1-2.89,3,7.48,7.48,0,0,1-4.31,1.16,8.63,8.63,0,0,1-2.85-.49,6.46,6.46,0,0,1-2.55-1.61,8.09,8.09,0,0,1-1.8-2.89,12.07,12.07,0,0,1-.68-4.31V815h7.65v26.32a5.09,5.09,0,0,0,1,3.3,3.35,3.35,0,0,0,2.77,1.2,3.23,3.23,0,0,0,3-1.35,7.54,7.54,0,0,0,.83-3.9V815Z" transform="translate(-676.26 -254)" style="fill: #687161"/>
        <path d="M1195.39,853V815h7.66v4a22.9,22.9,0,0,1,4.57-3.3,11.68,11.68,0,0,1,5.55-1.2v8.1a6.22,6.22,0,0,0-2.32-.45,8.92,8.92,0,0,0-2.59.41,6.62,6.62,0,0,0-2.51,1.39,7.22,7.22,0,0,0-2,2.55,9,9,0,0,0-.75,3.9V853Z" transform="translate(-676.26 -254)" style="fill: #687161"/>
        <path d="M1219.77,815h8.1l5.25,23.7h.15l5.17-23.7h7.88l-11,44.62a12.92,12.92,0,0,1-1.69,4.2,10.35,10.35,0,0,1-2.51,2.7,8.62,8.62,0,0,1-3,1.46,13.16,13.16,0,0,1-3.33.42h-2.11v-7.2h1.73a6,6,0,0,0,1.95-.3,3.15,3.15,0,0,0,1.5-1.35,13.39,13.39,0,0,0,1.12-3q.52-1.9,1.2-5.28Z" transform="translate(-676.26 -254)" style="fill: #687161"/>
      </g>
    </g>
    <path d="M834.15,312.79a10,10,0,0,0,15.92.92A9.79,9.79,0,0,0,852,304a10,10,0,0,0-17.81-2.43h-12l-7.52-13h19.82a9.66,9.66,0,1,0,2.63-13.4,9.54,9.54,0,0,0-2.63,2.63H808.36l-7.76-13.47a10.61,10.61,0,0,0-18.35,0l-7.74,13.47H759.14l4.57-7.92A10.59,10.59,0,0,0,754.54,254H711.33a10.65,10.65,0,0,0-9.18,5.29l-24.48,42.42a10.63,10.63,0,0,0,0,10.58l24.49,42.42a10.58,10.58,0,0,0,9.17,5.29H754.5a10.61,10.61,0,0,0,9.19-15.91l-4.55-7.89h15.4l7.73,13.65a10.6,10.6,0,0,0,18.36,0l7.73-13.21h25.7a10.09,10.09,0,0,0,16,.92,9.84,9.84,0,0,0,1.89-9.67,10.08,10.08,0,0,0-15.19-5.21,9.93,9.93,0,0,0-2.74,2.74h-19.3L822,312.84ZM768,289l-7.27,12.58H745.58L752.84,289ZM711.6,349.22l-24.26-42,24.26-42h42.17L732.58,302a10.58,10.58,0,0,0,0,10.58l21.19,36.69Zm41.26-23.81-7.25-12.57h15.13L768,325.42Zm38.64,18.31-21.12-36.61,21.12-36.6,21.14,36.6Z" transform="translate(-676.26 -254)" style="fill: #a1b593"/>
  </g>
</svg>
